HIERARCHY
ROOT newVegas:Hips
{
	OFFSET 0.000000 96.330055 9.825774
	CHANNELS 6 Xposition Yposition Zposition Xrotation Yrotation Zrotation
	JOINT newVegas:Pelvis
	{
		OFFSET 0.000000 0.000000 0.000000
		CHANNELS 3 Xrotation Yrotation Zrotation
		JOINT newVegas:LeftUpLeg
		{
			OFFSET 18.735231 -5.666687 -4.541196
			CHANNELS 3 Xrotation Yrotation Zrotation
			JOINT newVegas:LeftLeg
			{
				OFFSET 2.165257 -31.864662 0.493051
				CHANNELS 3 Xrotation Yrotation Zrotation
				JOINT newVegas:LeftFoot
				{
					OFFSET 2.207560 -31.861769 -4.336291
					CHANNELS 3 Xrotation Yrotation Zrotation
					JOINT newVegas:LeftToeBase
					{
						OFFSET 0.942982 -26.721954 15.023476
						CHANNELS 3 Xrotation Yrotation Zrotation
						End Site
						{
							OFFSET 0.000000 30.670130 0.000000
						}
					}
				}
				JOINT newVegas:Left_PantLeg
				{
					OFFSET 1.281483 -8.977982 -1.108870
					CHANNELS 3 Xrotation Yrotation Zrotation
					End Site
					{
						OFFSET 0.000000 20.683853 0.000000
					}
				}
			}
		}
		JOINT newVegas:RightUpLeg
		{
			OFFSET -18.735231 -5.666687 -4.541196
			CHANNELS 3 Xrotation Yrotation Zrotation
			JOINT newVegas:RightLeg
			{
				OFFSET -2.167511 -31.864510 0.493069
				CHANNELS 3 Xrotation Yrotation Zrotation
				JOINT newVegas:RightFoot
				{
					OFFSET -2.205305 -31.861921 -4.336310
					CHANNELS 3 Xrotation Yrotation Zrotation
					JOINT newVegas:RightToeBase
					{
						OFFSET -0.942982 -26.721954 15.023476
						CHANNELS 3 Xrotation Yrotation Zrotation
						End Site
						{
							OFFSET 0.000000 30.670130 0.000000
						}
					}
				}
				JOINT newVegas:Right_PantLeg
				{
					OFFSET -1.279257 -8.978161 -1.108887
					CHANNELS 3 Xrotation Yrotation Zrotation
					End Site
					{
						OFFSET 0.000000 20.683781 0.000000
					}
				}
			}
		}
	}
	JOINT newVegas:Spine
	{
		OFFSET 0.000000 10.200043 -0.299546
		CHANNELS 3 Xrotation Yrotation Zrotation
		JOINT newVegas:Spine1
		{
			OFFSET 0.000000 11.900047 -1.516603
			CHANNELS 3 Xrotation Yrotation Zrotation
			JOINT newVegas:Spine2
			{
				OFFSET 0.000000 13.600052 -2.842519
				CHANNELS 3 Xrotation Yrotation Zrotation
				JOINT newVegas:Neck
				{
					OFFSET 0.000000 9.624100 -2.890091
					CHANNELS 3 Xrotation Yrotation Zrotation
					JOINT newVegas:Head
					{
						OFFSET 0.000000 14.068771 -1.351861
						CHANNELS 3 Xrotation Yrotation Zrotation
						JOINT newVegas:Hair_Back
						{
							OFFSET 0.000000 3.231888 -17.524775
							CHANNELS 3 Xrotation Yrotation Zrotation
							End Site
							{
								OFFSET 0.000000 19.849899 0.000000
							}
						}
						JOINT newVegas:Hair_Front
						{
							OFFSET 0.000000 31.260452 4.573765
							CHANNELS 3 Xrotation Yrotation Zrotation
							JOINT newVegas:Hair_Front1
							{
								OFFSET -0.000000 2.284073 11.993284
								CHANNELS 3 Xrotation Yrotation Zrotation
								JOINT newVegas:Hair_Front2
								{
									OFFSET -0.000000 2.284073 11.993282
									CHANNELS 3 Xrotation Yrotation Zrotation
									End Site
									{
										OFFSET 0.000000 12.208847 0.000000
									}
								}
							}
						}
						JOINT newVegas:Jowel
						{
							OFFSET 0.000000 -7.458237 6.864121
							CHANNELS 3 Xrotation Yrotation Zrotation
							End Site
							{
								OFFSET 0.000000 19.849899 0.000000
							}
						}
					}
				}
				JOINT newVegas:LeftShoulder
				{
					OFFSET 15.263037 10.923431 -0.547705
					CHANNELS 3 Xrotation Yrotation Zrotation
					JOINT newVegas:LeftArm
					{
						OFFSET 25.438639 -2.830658 -13.032501
						CHANNELS 3 Xrotation Yrotation Zrotation
						JOINT newVegas:LeftForeArm
						{
							OFFSET 29.593842 0.000000 -4.673203
							CHANNELS 3 Xrotation Yrotation Zrotation
							JOINT newVegas:LeftHand
							{
								OFFSET 27.832886 0.000000 0.954267
								CHANNELS 3 Xrotation Yrotation Zrotation
								JOINT newVegas:LeftHandThumb1
								{
									OFFSET 4.767456 -2.676666 6.397403
									CHANNELS 3 Xrotation Yrotation Zrotation
									JOINT newVegas:LeftHandThumb2
									{
										OFFSET 6.625809 -0.223526 2.471421
										CHANNELS 3 Xrotation Yrotation Zrotation
										JOINT newVegas:LeftHandThumb3
										{
											OFFSET 6.481201 0.059357 1.536795
											CHANNELS 3 Xrotation Yrotation Zrotation
											End Site
											{
												OFFSET 0.000000 6.661179 0.000000
											}
										}
									}
								}
								JOINT newVegas:LeftHandIndex1
								{
									OFFSET 18.761932 0.178406 4.531118
									CHANNELS 3 Xrotation Yrotation Zrotation
									JOINT newVegas:LeftHandIndex2
									{
										OFFSET 3.171219 -0.350479 0.097670
										CHANNELS 3 Xrotation Yrotation Zrotation
										JOINT newVegas:LeftHandIndex3
										{
											OFFSET 3.807625 -0.034592 0.457391
											CHANNELS 3 Xrotation Yrotation Zrotation
											End Site
											{
												OFFSET 0.000000 3.835159 0.000000
											}
										}
									}
								}
								JOINT newVegas:LeftHandMiddle1
								{
									OFFSET 18.461426 0.243439 -0.695649
									CHANNELS 3 Xrotation Yrotation Zrotation
									JOINT newVegas:LeftHandMiddle2
									{
										OFFSET 3.308960 -0.304459 -0.112251
										CHANNELS 3 Xrotation Yrotation Zrotation
										JOINT newVegas:LeftHandMiddle3
										{
											OFFSET 4.584320 0.057678 -0.330443
											CHANNELS 3 Xrotation Yrotation Zrotation
											End Site
											{
												OFFSET 0.000000 4.596573 0.000000
											}
										}
									}
								}
								JOINT newVegas:LeftHandRing1
								{
									OFFSET 17.563904 -0.015564 -4.860666
									CHANNELS 3 Xrotation Yrotation Zrotation
									JOINT newVegas:LeftHandRing2
									{
										OFFSET 2.582436 -0.710159 -0.544994
										CHANNELS 3 Xrotation Yrotation Zrotation
										JOINT newVegas:LeftHandRing3
										{
											OFFSET 3.050346 0.119141 -0.884829
											CHANNELS 3 Xrotation Yrotation Zrotation
											End Site
											{
												OFFSET 0.000000 3.178314 0.000000
											}
										}
									}
								}
								JOINT newVegas:LeftHandPinky1
								{
									OFFSET 15.713013 -1.058273 -8.049927
									CHANNELS 3 Xrotation Yrotation Zrotation
									JOINT newVegas:LeftHandPinky2
									{
										OFFSET 2.262558 -0.308899 -1.109793
										CHANNELS 3 Xrotation Yrotation Zrotation
										JOINT newVegas:LeftHandPinky3
										{
											OFFSET 2.240669 -0.150864 -1.296448
											CHANNELS 3 Xrotation Yrotation Zrotation
											End Site
											{
												OFFSET 0.000000 2.593094 0.000000
											}
										}
									}
								}
							}
							JOINT newVegas:Left_Sleeve
							{
								OFFSET 0.247482 -0.649780 0.586459
								CHANNELS 3 Xrotation Yrotation Zrotation
								End Site
								{
									OFFSET 0.000000 15.991226 0.000000
								}
							}
							JOINT newVegas:Left_CapeC
							{
								OFFSET 15.944374 -8.608810 -6.393338
								CHANNELS 3 Xrotation Yrotation Zrotation
								JOINT newVegas:Left_CapeC1
								{
									OFFSET 0.000000 -8.688515 0.000000
									CHANNELS 3 Xrotation Yrotation Zrotation
									End Site
									{
										OFFSET 0.000000 8.688515 0.000000
									}
								}
							}
						}
						JOINT newVegas:Left_CapeB
						{
							OFFSET 24.694458 -8.608810 -11.066542
							CHANNELS 3 Xrotation Yrotation Zrotation
							JOINT newVegas:Left_CapeB1
							{
								OFFSET 0.000008 -8.688515 0.000000
								CHANNELS 3 Xrotation Yrotation Zrotation
								End Site
								{
									OFFSET 0.000000 8.688515 0.000000
								}
							}
						}
						JOINT newVegas:Left_CapeA
						{
							OFFSET 3.431450 -8.608810 -11.066542
							CHANNELS 3 Xrotation Yrotation Zrotation
							JOINT newVegas:Left_CapeA1
							{
								OFFSET 0.000000 -8.688515 0.000000
								CHANNELS 3 Xrotation Yrotation Zrotation
								End Site
								{
									OFFSET 0.000000 8.688515 0.000000
								}
							}
						}
					}
				}
				JOINT newVegas:RightShoulder
				{
					OFFSET -15.263037 10.923431 -0.547705
					CHANNELS 3 Xrotation Yrotation Zrotation
					JOINT newVegas:RightArm
					{
						OFFSET -25.438639 -2.830658 -13.032501
						CHANNELS 3 Xrotation Yrotation Zrotation
						JOINT newVegas:RightForeArm
						{
							OFFSET -29.593842 0.000000 -4.673203
							CHANNELS 3 Xrotation Yrotation Zrotation
							JOINT newVegas:RightHand
							{
								OFFSET -27.832886 0.000000 0.954267
								CHANNELS 3 Xrotation Yrotation Zrotation
								JOINT newVegas:RightHandThumb1
								{
									OFFSET -4.767456 -2.676666 6.397403
									CHANNELS 3 Xrotation Yrotation Zrotation
									JOINT newVegas:RightHandThumb2
									{
										OFFSET -6.625809 -0.223526 2.471421
										CHANNELS 3 Xrotation Yrotation Zrotation
										JOINT newVegas:RightHandThumb3
										{
											OFFSET -6.481201 0.059357 1.536795
											CHANNELS 3 Xrotation Yrotation Zrotation
											End Site
											{
												OFFSET 0.000000 6.661179 0.000000
											}
										}
									}
								}
								JOINT newVegas:RightHandIndex1
								{
									OFFSET -18.761932 0.178406 4.531118
									CHANNELS 3 Xrotation Yrotation Zrotation
									JOINT newVegas:RightHandIndex2
									{
										OFFSET -3.171219 -0.350479 0.097670
										CHANNELS 3 Xrotation Yrotation Zrotation
										JOINT newVegas:RightHandIndex3
										{
											OFFSET -3.807625 -0.034592 0.457391
											CHANNELS 3 Xrotation Yrotation Zrotation
											End Site
											{
												OFFSET 0.000000 3.835159 0.000000
											}
										}
									}
								}
								JOINT newVegas:RightHandMiddle1
								{
									OFFSET -18.461426 0.243439 -0.695648
									CHANNELS 3 Xrotation Yrotation Zrotation
									JOINT newVegas:RightHandMiddle2
									{
										OFFSET -3.308960 -0.304459 -0.112251
										CHANNELS 3 Xrotation Yrotation Zrotation
										JOINT newVegas:RightHandMiddle3
										{
											OFFSET -4.584320 0.057678 -0.330443
											CHANNELS 3 Xrotation Yrotation Zrotation
											End Site
											{
												OFFSET 0.000000 4.596573 0.000000
											}
										}
									}
								}
								JOINT newVegas:RightHandRing1
								{
									OFFSET -17.563904 -0.015564 -4.860666
									CHANNELS 3 Xrotation Yrotation Zrotation
									JOINT newVegas:RightHandRing2
									{
										OFFSET -2.582436 -0.710159 -0.544992
										CHANNELS 3 Xrotation Yrotation Zrotation
										JOINT newVegas:RightHandRing3
										{
											OFFSET -3.050346 0.119141 -0.884830
											CHANNELS 3 Xrotation Yrotation Zrotation
											End Site
											{
												OFFSET 0.000000 3.178329 0.000000
											}
										}
									}
								}
								JOINT newVegas:RightHandPinky1
								{
									OFFSET -15.713013 -1.058273 -8.049929
									CHANNELS 3 Xrotation Yrotation Zrotation
									JOINT newVegas:RightHandPinky2
									{
										OFFSET -2.262558 -0.308899 -1.109791
										CHANNELS 3 Xrotation Yrotation Zrotation
										JOINT newVegas:RightHandPinky3
										{
											OFFSET -2.240669 -0.150864 -1.296448
											CHANNELS 3 Xrotation Yrotation Zrotation
											End Site
											{
												OFFSET 0.000000 2.593094 0.000000
											}
										}
									}
								}
							}
							JOINT newVegas:Right_CapeC
							{
								OFFSET -15.944374 -8.608810 -6.393338
								CHANNELS 3 Xrotation Yrotation Zrotation
								JOINT newVegas:Right_CapeC1
								{
									OFFSET 0.000000 -8.688515 0.000000
									CHANNELS 3 Xrotation Yrotation Zrotation
									End Site
									{
										OFFSET 0.000000 8.688515 0.000000
									}
								}
							}
							JOINT newVegas:Right_Sleeve
							{
								OFFSET -0.247482 -0.649963 0.586505
								CHANNELS 3 Xrotation Yrotation Zrotation
								End Site
								{
									OFFSET 0.000000 15.991287 0.000000
								}
							}
						}
						JOINT newVegas:Right_CapeA
						{
							OFFSET -3.431450 -8.608810 -11.066542
							CHANNELS 3 Xrotation Yrotation Zrotation
							JOINT newVegas:Right_CapeA1
							{
								OFFSET 0.000000 -8.688515 0.000000
								CHANNELS 3 Xrotation Yrotation Zrotation
								End Site
								{
									OFFSET 0.000000 8.688515 0.000000
								}
							}
						}
						JOINT newVegas:Right_CapeB
						{
							OFFSET -24.694321 -8.608810 -11.066542
							CHANNELS 3 Xrotation Yrotation Zrotation
							JOINT newVegas:Right_CapeB1
							{
								OFFSET -0.000015 -8.688515 0.000002
								CHANNELS 3 Xrotation Yrotation Zrotation
								End Site
								{
									OFFSET 0.000000 8.688515 0.000000
								}
							}
						}
					}
				}
				JOINT newVegas:Left_Collar
				{
					OFFSET 18.625118 8.655487 8.828113
					CHANNELS 3 Xrotation Yrotation Zrotation
					JOINT newVegas:Left_Collar1
					{
						OFFSET 14.783401 10.540359 -1.259481
						CHANNELS 3 Xrotation Yrotation Zrotation
						End Site
						{
							OFFSET 0.000000 18.199844 0.000000
						}
					}
				}
				JOINT newVegas:Collar_Back
				{
					OFFSET 0.000000 15.630692 -20.132616
					CHANNELS 3 Xrotation Yrotation Zrotation
					End Site
					{
						OFFSET 0.000000 22.523010 0.000000
					}
				}
				JOINT newVegas:Left_Peck
				{
					OFFSET 17.239555 -5.132629 25.482586
					CHANNELS 3 Xrotation Yrotation Zrotation
					End Site
					{
						OFFSET 0.000000 22.523026 0.000000
					}
				}
				JOINT newVegas:Right_Peck
				{
					OFFSET -17.239599 -5.132195 25.482594
					CHANNELS 3 Xrotation Yrotation Zrotation
					End Site
					{
						OFFSET 0.000000 22.523018 0.000000
					}
				}
				JOINT newVegas:Right_Collar
				{
					OFFSET -18.625099 8.655807 8.828094
					CHANNELS 3 Xrotation Yrotation Zrotation
					JOINT newVegas:Right_Collar1
					{
						OFFSET -14.783405 10.539993 -1.259501
						CHANNELS 3 Xrotation Yrotation Zrotation
						End Site
						{
							OFFSET 0.000000 18.199646 0.000000
						}
					}
				}
			}
		}
		JOINT newVegas:Belly
		{
			OFFSET 0.000000 -6.540390 9.014252
			CHANNELS 3 Xrotation Yrotation Zrotation
			End Site
			{
				OFFSET 0.000000 11.566666 0.000000
			}
		}
	}
	JOINT newVegas:ElvisFacialAnim_Joint
	{
		OFFSET 1.000000 -95.330055 -8.825774
		CHANNELS 3 Xrotation Yrotation Zrotation
		End Site
		{
			OFFSET 0.000000 35.315800 0.000000
		}
	}
}
MOTION
Frames: 4
Frame Time: 0.033333
0.104428 92.373924 3.944887 -5.887611 -0.202436 5.224021 0.000000 -0.000000 0.000000 -9.398894 5.761615 -6.470888 28.133003 -3.328006 1.245284 -12.249770 0.565056 0.634640 -0.000000 -0.000000 0.000000 -0.000000 -0.000000 -0.000000 -5.295285 -9.691598 0.253922 38.296304 -11.095431 2.760550 -29.190248 -8.514625 -2.963050 0.000000 0.000000 0.000000 -0.000001 -0.000001 0.000000 10.989371 1.235193 -8.494339 2.730506 0.560542 -1.598043 2.716967 0.568359 -1.624085 -2.019342 -0.314335 0.407336 -2.019341 -0.314333 0.407333 -0.000000 -0.000000 0.000000 -2.019341 -0.314338 0.407337 -2.019274 -0.314330 0.407335 0.000000 -0.000000 -0.000000 -0.000000 -0.000000 0.000000 0.622058 -1.322663 -11.478681 -14.176766 -30.565264 -57.580455 -0.000003 -3.304122 -0.000027 7.956430 -14.874043 6.731983 -4.341707 0.777283 -21.845417 11.319930 13.061343 0.762960 -0.000001 -0.000002 0.000001 0.850540 6.441791 -18.655618 3.988379 4.132632 -32.164621 0.000000 -0.000001 0.000000 -0.721844 3.207708 -27.152551 -2.535705 -0.745594 -39.822513 -0.000001 0.000003 -0.000000 -5.650113 -5.047064 -24.414738 -12.812888 3.908366 -53.280267 -0.000001 0.000000 -0.000001 -15.774691 -15.560820 -35.806823 -19.531254 4.375246 -37.154887 -0.000004 -0.000001 -0.000001 -0.000001 0.000001 0.000000 -0.000001 0.000001 0.000000 -0.000001 0.000001 0.000000 -0.000001 -0.000002 -0.000000 -0.000001 -0.000002 -0.000000 -0.000001 -0.000002 -0.000000 -0.000001 -0.000002 -0.000000 0.699982 4.852526 12.497514 -9.198274 18.596471 67.163975 0.000007 17.179707 -0.000001 12.381238 10.394697 -4.100259 -4.097656 -0.318876 18.744413 7.378161 -17.069973 2.930633 0.000001 0.000001 -0.000000 1.814723 -8.042549 19.526379 4.145638 -3.320560 35.903391 -0.000002 -0.000002 0.000003 0.299041 -4.393290 27.598892 -2.994952 1.241705 43.248823 0.000000 0.000001 0.000001 -6.373563 5.678422 26.804905 -13.671254 -3.998063 56.243818 -0.000001 -0.000001 -0.000001 -16.969427 15.765405 38.359234 -20.999352 -4.655090 39.812415 0.000003 -0.000000 -0.000000 0.000001 0.000000 0.000001 0.000001 0.000000 0.000001 0.000001 0.000000 0.000002 0.000001 0.000001 0.000001 0.000001 0.000001 0.000001 0.000001 0.000001 0.000001 0.000001 0.000001 0.000001 -0.000000 0.000000 -0.000001 -0.000000 0.000000 -0.000000 -0.000000 0.000000 -0.000001 -0.000000 0.000000 -0.000001 -0.000000 0.000000 -0.000001 -0.000000 0.000000 -0.000001 -0.000000 0.000000 -0.000000 -0.000001 0.000000 0.000000 0.000000 -0.000000 0.000000 
0.097537 92.281700 4.092724 -5.833554 -0.253520 5.076088 -0.000001 0.000000 -0.000000 -9.678683 5.838250 -6.178625 28.863754 -3.437367 1.052815 -12.774242 0.551987 0.803128 0.000000 0.000000 0.000000 -0.000000 0.000000 0.000000 -5.225504 -10.106204 0.439734 38.313779 -11.104740 2.407115 -29.324516 -8.246281 -2.702872 -0.000000 -0.000000 -0.000000 0.000003 0.000001 0.000001 11.364824 0.847885 -8.166970 2.803467 0.440953 -1.518283 2.790853 0.447369 -1.538318 -2.007609 -0.274051 0.331323 -2.007612 -0.274051 0.331319 -0.000000 -0.000000 0.000000 -2.007609 -0.274047 0.331321 -2.007541 -0.274050 0.331321 0.000000 0.000000 0.000000 -0.000000 -0.000000 0.000000 0.564302 -1.680438 -12.970539 -15.777809 -30.940815 -57.745575 -0.000002 -1.403674 0.000000 11.781567 -11.904914 7.532719 -4.289379 -0.721424 -21.402915 10.354887 13.974891 0.165994 -0.000000 -0.000001 0.000000 0.930370 6.586402 -18.138679 3.892180 4.186311 -31.243628 -0.000001 0.000000 -0.000000 -0.625000 3.323001 -26.521683 -2.563351 -0.710189 -40.431151 0.000000 -0.000001 0.000001 -5.546659 -5.116263 -23.798128 -13.028540 4.329437 -54.865602 -0.000003 0.000001 0.000001 -16.011893 -15.362354 -36.492232 -20.353252 5.139824 -39.027643 -0.000001 0.000001 -0.000000 0.000002 -0.000001 -0.000000 0.000002 -0.000001 -0.000000 0.000002 -0.000001 -0.000000 0.000002 -0.000000 0.000000 0.000002 -0.000000 0.000000 0.000002 -0.000000 0.000000 0.000002 -0.000000 0.000000 0.923048 4.854693 12.478128 -8.679995 16.574868 67.726011 0.000010 18.317338 -0.000011 12.742055 12.898770 -4.229908 -4.242431 2.722818 18.622704 6.396608 -18.357236 2.980619 0.000001 0.000000 0.000000 1.683355 -7.876880 18.054622 3.895545 -3.545323 33.112340 -0.000005 -0.000001 -0.000001 0.191271 -4.233434 26.094777 -3.001445 1.236482 43.364195 0.000001 0.000003 0.000000 -6.057144 5.859145 25.026942 -13.998430 -4.614319 58.607627 0.000003 -0.000002 -0.000001 -17.177656 15.592716 38.957415 -22.290256 -5.889736 42.781132 0.000001 0.000000 0.000000 0.000002 -0.000001 0.000000 0.000002 -0.000001 0.000000 0.000002 -0.000001 0.000000 0.000002 0.000001 0.000001 0.000002 0.000001 0.000001 0.000002 0.000001 0.000001 0.000002 0.000001 0.000001 -0.000000 0.000000 -0.000000 0.000000 0.000000 -0.000000 -0.000000 0.000000 -0.000000 -0.000000 0.000000 -0.000000 -0.000000 0.000000 -0.000000 -0.000000 0.000000 -0.000000 0.000000 0.000000 -0.000000 0.000000 -0.000000 -0.000000 -0.000000 0.000000 -0.000000 
0.077678 92.212563 4.267900 -5.859944 -0.381902 4.917743 0.000000 -0.000000 0.000000 -9.756262 5.915876 -5.867316 29.480360 -3.526521 0.855387 -13.304776 0.615013 0.918813 0.000000 -0.000000 0.000000 -0.000000 -0.000000 0.000000 -5.051403 -10.594364 0.621012 38.282872 -10.588999 2.068676 -29.447879 -8.266324 -2.729264 0.000000 0.000000 -0.000000 -0.000001 -0.000001 -0.000000 11.789846 0.411046 -7.791568 2.889952 0.306332 -1.434253 2.878402 0.311721 -1.447499 -1.979995 -0.229784 0.244269 -1.980000 -0.229784 0.244270 0.000001 -0.000000 0.000000 -1.980064 -0.229789 0.244270 -1.979920 -0.229784 0.244269 0.000000 -0.000000 0.000000 0.000001 -0.000000 0.000000 0.508066 -2.037626 -14.609290 -17.132295 -31.280665 -57.731949 0.000000 -0.103807 -0.000002 16.183599 -8.287030 8.281638 -4.233294 -2.412517 -20.887140 9.247523 15.035287 -0.470631 -0.000000 0.000000 0.000000 1.014340 6.743441 -17.683642 3.798012 4.236885 -30.350031 0.000001 0.000000 -0.000001 -0.524800 3.449243 -25.871061 -2.602711 -0.658467 -41.311843 0.000002 -0.000002 0.000000 -5.429334 -5.192810 -23.103871 -13.250851 4.796156 -56.597126 0.000001 -0.000002 0.000000 -16.294162 -15.119553 -37.316151 -21.218102 5.999844 -41.051356 -0.000001 -0.000001 -0.000001 -0.000001 0.000001 -0.000000 -0.000001 0.000001 -0.000000 -0.000001 0.000001 -0.000000 0.000000 0.000001 -0.000000 0.000000 0.000001 0.000000 0.000000 0.000001 -0.000000 0.000000 0.000001 -0.000000 1.151013 4.605723 12.344223 -8.343704 14.599830 68.480754 -0.000006 19.396643 0.000030 13.209312 15.699707 -4.304798 -4.425310 6.023186 18.464742 5.316632 -19.743005 2.986804 0.000001 0.000000 0.000000 1.549487 -7.691218 16.432696 3.601230 -3.783389 29.968865 -0.000000 0.000000 0.000002 0.083553 -4.052078 24.428037 -3.009379 1.230069 43.505809 0.000001 -0.000001 -0.000001 -5.707155 6.044257 23.094131 -14.332045 -5.314229 61.232748 0.000000 0.000000 0.000001 -17.429763 15.378453 39.688204 -23.641785 -7.327222 46.032845 -0.000002 -0.000000 0.000000 0.000000 0.000000 -0.000001 0.000000 0.000000 -0.000001 0.000000 0.000000 -0.000000 -0.000001 0.000000 0.000000 -0.000001 0.000000 0.000000 -0.000001 0.000000 0.000000 -0.000001 0.000000 0.000000 -0.000001 -0.000000 0.000000 -0.000001 -0.000000 0.000000 -0.000001 -0.000000 0.000000 -0.000001 -0.000000 0.000000 -0.000001 -0.000000 0.000000 -0.000001 -0.000000 0.000000 -0.000001 -0.000000 0.000000 -0.000001 -0.000000 0.000000 0.000000 -0.000000 0.000000 
0.049301 92.153404 4.495150 -5.840745 -0.580215 4.757123 -0.000000 -0.000000 0.000000 -9.758206 5.994250 -5.560939 29.988331 -3.668125 0.661584 -13.842427 0.767540 1.026311 0.000000 -0.000000 -0.000000 -0.000000 0.000000 -0.000000 -4.854260 -11.173647 0.736571 38.188595 -9.716041 1.800563 -29.599434 -8.391750 -2.938633 0.000000 0.000001 0.000000 -0.000002 -0.000001 0.000001 12.076627 -0.016567 -7.381458 2.947606 0.174703 -1.344490 2.937168 0.179411 -1.351713 -1.913236 -0.182636 0.150855 -1.913228 -0.182636 0.150852 0.000001 -0.000000 -0.000000 -1.913232 -0.182643 0.150853 -1.913235 -0.182634 0.150853 0.000000 -0.000000 -0.000000 0.000001 -0.000000 -0.000000 0.433305 -2.469965 -16.214379 -17.453901 -31.276631 -57.410855 0.000001 -0.935776 0.000029 20.433361 -3.470939 8.503535 -4.177216 -4.192596 -20.324956 8.059284 16.185042 -1.096281 -0.000005 -0.000001 0.000001 1.099246 6.907309 -17.259623 3.704546 4.285230 -29.470098 0.000000 -0.000001 0.000000 -0.424702 3.582149 -25.210498 -2.647130 -0.597991 -42.328489 0.000001 -0.000002 0.000000 -5.304432 -5.272092 -22.370596 -13.467583 5.289535 -58.401457 -0.000001 0.000002 0.000003 -16.595927 -14.851746 -38.207648 -22.085768 6.925456 -43.144768 -0.000002 -0.000001 -0.000000 0.000000 0.000001 -0.000000 0.000000 0.000001 -0.000000 0.000000 0.000001 -0.000000 -0.000002 -0.000003 0.000002 -0.000002 -0.000003 0.000002 -0.000002 -0.000003 0.000002 -0.000002 -0.000003 0.000002 1.362059 4.144853 12.176962 -8.107418 12.779697 69.330614 0.000003 20.246976 0.000010 13.790614 17.784880 -4.521886 -4.635244 9.178983 18.296726 4.268159 -21.088516 2.945246 -0.000002 0.000000 0.000000 1.433544 -7.509121 14.887745 3.311641 -3.993098 26.998875 -0.000004 -0.000001 0.000001 -0.009096 -3.872756 22.844145 -3.016586 1.224231 43.634315 0.000000 -0.000001 -0.000000 -5.365223 6.210864 21.236281 -14.619168 -5.992561 63.725672 0.000000 0.000001 0.000001 -17.656100 15.181161 40.350558 -24.855736 -8.765806 49.110214 0.000000 -0.000000 0.000000 0.000001 0.000000 0.000000 0.000001 0.000000 0.000000 0.000001 0.000000 -0.000000 0.000001 -0.000000 0.000000 0.000001 -0.000000 0.000000 0.000001 -0.000000 0.000000 0.000001 -0.000000 0.000000 -0.000000 0.000000 -0.000000 -0.000000 0.000000 -0.000000 -0.000000 0.000000 -0.000000 -0.000000 0.000000 -0.000000 -0.000000 0.000000 -0.000000 -0.000000 0.000000 -0.000000 -0.000000 0.000000 -0.000000 -0.000000 0.000000 0.000000 -0.000000 -0.000000 0.000000 
